<?xml version="1.0" encoding="UTF-8"?>
<svg id="Camada_2" data-name="Camada 2" xmlns="http://www.w3.org/2000/svg" viewBox="0 0 225.81 215.74">
  <defs>
    <style>
      .cls-1 {
        fill: #c53334;
      }
    </style>
  </defs>
  <g id="Camada_1-2" data-name="Camada 1">
    <g>
      <path class="cls-1" d="M27.74,59.27c-1.12-1.48.01-2.64.85-3.79,6.24-8.51,13.03-16.41,22.33-21.81,16.18-9.4,33.4-15.63,51.85-19.14,5.65-1.07,10.77.65,16.11-.11,18.76-2.66,34.09,4.22,47.76,16.62,3.57,3.24,7.55,6.01,11.17,9.18-3.27-.5-7.62.55-9.49,2.31-3.99,3.77-7.02,8.33-6.3,14.11.68,5.39-1.88,7.96-6.55,9.35-5.48,1.63-7.93,9.29-4.34,13.59,1.42,1.7,3.15,1.51,4.79.45,5.93-3.86,12.81-6.09,18.53-11.08,2.61,3.33,5.75,3.95,9.37,1.98,1.78-.97,3.18-.37,4.77.94,2.81,2.31,4.99,5.69,9.17,6.38-5.88.96-11.88,1.73-17.4-.65-4.86-2.1-8.49.97-12.65,1.69-.84.15-1.49.99-1.51,2.05-2.34.48-5.64,2.25-7.22,2.69-5.93,1.64-10.46,5.47-13.98,10.14-5.61,7.44-8.6,15.96-7.17,25.45.89,5.89,7.73,9.59,13.44,7.6.33-.11.64-.35.98-.42,4.5-.89,8.56-5,13.14-3.47,4.55,1.52,4.18,7.61,7.12,10.79,5.91,6.37,11.49,13.01,17.23,19.53,2.94,3.34,4.4,6.43,1.59,10.41-1.54,2.18-.4,3.64,1.96,5.02-6.32,7.44-13.53,14.63-22.02,16.5-8.3,1.83-13.8,7.28-20.99,10.21-10.56,4.31-21.13,7.06-32.55,5.89-1.69-.17-3.12.24-4.55,1.13-9.38,5.83-24.35,7.26-34.89,3.26,1.75-4.26,6.93-5.48,8.58-9.85.8-2.11,1.74-4.02.35-6.02-4.55-6.57-2.55-12.68,1.65-18.25,4.77-6.34,5.33-12.94,2.77-20.15-2.31-6.53-7.17-10.95-12.5-14.9-2.04-1.52-4.05-1.06-6.2.81-4.97,4.34-10.69,2.46-12.29-3.93-.94-3.78-1.33-7.74-6.74-4.17-2.09-3.85-3.9-7.29-5.93-10.61-2.97-4.86.14-11.46,5.6-13.06,5.97-1.76,11.97-3.41,17.91-5.26,4.21-1.3,7.67-3.78,10.04-7.57.94-1.51,2.49-3.47,1.68-4.88-2.97-5.2-.39-10.37-.32-15.49.09-5.96-2.38-10.72-5.58-15.24-3.78-5.36-16-5.94-21.27-.64-4.64,4.66-9.4,6.62-15.8,4.42-2.5-.86-5.28-.69-7.93.04-2.04.56-3.47-.58-4.57-2.05Z"/>
      <path class="cls-1" d="M168.75,82.03c.13.35.1.79-.06,1.28-.64.16-1.33.07-2.07-.45-.3-.52-.43-1.04-.42-1.52,1.25-.26,2.23-.16,2.55.69Z"/>
      <path class="cls-1" d="M181.37,42.09c-.39.06-.8.16-1.23.3-.75-.75-1.53-1.46-2.33-2.17,1.56.24,2.87.83,3.56,1.87Z"/>
      <path class="cls-1" d="M28.59,55.48c-.84,1.15-1.97,2.31-.85,3.79,1.1,1.47,2.53,2.61,4.57,2.05,2.65-.73,5.43-.9,7.93-.04,6.4,2.2,11.16.24,15.8-4.42,5.27-5.3,17.49-4.72,21.27.64,3.2,4.52,5.67,9.28,5.58,15.24-.07,5.12-2.65,10.29.32,15.49.81,1.41-.74,3.37-1.68,4.88-2.37,3.79-5.83,6.27-10.04,7.57-5.94,1.85-11.94,3.5-17.91,5.26-5.46,1.6-8.57,8.2-5.6,13.06,2.03,3.32,3.84,6.76,5.93,10.61,5.41-3.57,5.8.39,6.74,4.17,1.6,6.39,7.32,8.27,12.29,3.93,2.15-1.87,4.16-2.33,6.2-.81,5.33,3.95,10.19,8.37,12.5,14.9,2.56,7.21,2,13.81-2.77,20.15-4.2,5.57-6.2,11.68-1.65,18.25,1.39,2,.45,3.91-.35,6.02-1.65,4.37-6.83,5.59-8.58,9.85,10.54,4,25.51,2.57,34.89-3.26,1.43-.89,2.86-1.3,4.55-1.13,11.42,1.17,21.99-1.58,32.55-5.89,7.19-2.93,12.69-8.38,20.99-10.21,8.49-1.87,15.7-9.06,22.02-16.5-2.36-1.38-3.5-2.84-1.96-5.02,2.81-3.98,1.35-7.07-1.59-10.41-5.74-6.52-11.32-13.16-17.23-19.53-2.94-3.18-2.57-9.27-7.12-10.79-4.58-1.53-8.64,2.58-13.14,3.47-.34.07-.65.31-.98.42-5.71,1.99-12.55-1.71-13.44-7.6-1.43-9.49,1.56-18.01,7.17-25.45,3.52-4.67,8.05-8.5,13.98-10.14,1.58-.44,4.88-2.21,7.22-2.69-.01.48.12,1,.42,1.52.74.52,1.43.61,2.07.45-.81,2.55-4.87,6.62-6.89,7.17-12.5,3.43-19.79,13.34-19.36,26.1.12,3.41,1.35,5.06,4.94,5.6,3.58.54,6.17-1.2,9.07-2.44,6.65-2.83,12.89-2.35,14.8,2.4,4.76,11.87,15.7,18.65,22.52,28.78,3.23,4.8,6.65,8.98,2.32,14.9,3.93-3.64,6.88-7.68,7.56-12.94.19-1.43.66-2.41,1.92-2.87,2.29-.84,3.03-2.81,3.92-4.79,4.86-10.78,7.93-22.01,8.75-33.83.47-6.95.5-13.89-1.26-20.71-1.96-7.59-4.63-9.84-10.66-8.58-9.66,2.02-19.24,2.26-28.75-.75-2.3-.73-4.45-.8-6.6.73-.67.49-1.44,1.05-2.28,1.23.16-.49.19-.93.06-1.28-.32-.85-1.3-.95-2.55-.69.02-1.06.67-1.9,1.51-2.05,4.16-.72,7.79-3.79,12.65-1.69,5.52,2.38,11.52,1.61,17.4.65-4.18-.69-6.36-4.07-9.17-6.38-1.59-1.31-2.99-1.91-4.77-.94-3.62,1.97-6.76,1.35-9.37-1.98-5.72,4.99-12.6,7.22-18.53,11.08-1.64,1.06-3.37,1.25-4.79-.45-3.59-4.3-1.14-11.96,4.34-13.59,4.67-1.39,7.23-3.96,6.55-9.35-.72-5.78,2.31-10.34,6.3-14.11,1.87-1.76,6.22-2.81,9.49-2.31.8.71,1.58,1.42,2.33,2.17-5.51,1.68-14.02,8.7-13.37,13.89,1.02,8.07-.49,10.56-8.08,13.73-1.58.65-3.96.82-3.56,4.22,4.04-1.91,8.12-2.19,11.68-4.95,3.44-2.65,7.15-7.38,12.49-2.63.87.77,2.03.37,3-.21,4.53-2.69,8.02-.7,10.61,2.9,2.18,3.04,4.82,4.15,8.23,3.35,1.5-.35,2.2-2.02,1.83-3.49-.88-3.48-1.95-6.96-6.12-7.96-1.03-.24-2.13-.26-3.15-.53-1.26-.34-2.8-1.2-2.51-2.41,1.43-6.02-3.57-7.88-7.24-11.5-1.15-1.61-2.44-3.06-3.81-4.41.43-.14.84-.24,1.23-.3-.69-1.04-2-1.63-3.56-1.87-3.62-3.17-7.6-5.94-11.17-9.18-13.67-12.4-29-19.28-47.76-16.62-5.34.76-10.46-.96-16.11.11-18.45,3.51-35.67,9.74-51.85,19.14-9.3,5.4-16.09,13.3-22.33,21.81ZM209.6,63.62c8.67,10.96,16.5,22.82,15.93,37.72-.47,12.2-2.05,24.25-5.83,36.04-4.03,12.57-10.13,23.75-18.55,33.84-6.24,7.49-13.61,13.58-21.95,18.39-13.25,7.63-27.33,13.96-41.94,17.97-20.7,5.66-41.89,11.04-63.62,5.75-7.85-1.91-15.73-4.7-23.47-6.45-7.64-1.74-13.79-4.99-19.84-9.02-12.11-8.06-18.75-20.28-23.36-33.54-3.74-10.73-6.65-21.77-5.95-33.82-.07-8.62-1.99-17.47.51-24.81,3.71-10.87,5.76-22.33,11.01-32.77,3.25-6.47,4.75-13.79,9.1-19.82,12.07-16.75,27.2-29.41,47.16-35.77,8.4-2.67,16.24-7.12,25.25-7.34.01-1.14.12-1.68.01-2.18-1.54-6.93-.22-8.33,6.92-7.21,5.28.84,10.64,1.36,15.8,2.66,12.2,3.08,25.14,2.59,36.82,8.33,5.39,2.64,9.8,6.3,14.36,9.98,15.48,12.45,29.35,26.54,41.64,42.05ZM82.85,170.6c5.85-8.33,5.94-15.93-.76-23.53-1.98-2.25-3.94-3.62-7.36-1.71-5.63,3.14-13.84,1.56-16.49-4.03-2.62-5.56-6.92-9.49-10.83-13.77-.9-.99-1.78-2-2.62-3.05-3.82-4.79-4.08-9.5-1.9-14.94,2.15-5.4,5.17-8.76,11.62-9.13,7.33-.43,14.13-3.28,20.08-7.78,2.01-1.51,4.4-3.38,2.71-6.15-2.18-3.55-.81-6.29.7-9.45,2.52-5.24.01-12.72-5.22-16.63-3.04-2.28-12.08-1.33-15.25,1.9-4.72,4.81-10.12,6.45-16.51,4.15-2.14-.77-4.21-.91-6.26-.11-2.98,1.17-5.41.66-7.83-1.49-2.59-2.31-4.24-1.46-5.37,1.85-1.86,5.37-4.39,10.52-6.15,15.92-2.54,7.77-5.42,15.49-6.57,23.63-.53,3.7.2,6.44,5.24,5.01,5.14-1.46,8.44.58,11.28,5.43,2.62,4.49,5.2,10.66,12.97,8.17,2.14-.69,4.36.74,5.98,2.76.28.35.56.71.82,1.07,5.17,7.01,6.89,15.29,5.39,23.36-1.59,8.54-2.06,15.84,4.55,22.27,1.15,1.11,2.09,2.44,3.56,4.3,3.61,7.15,10.17,12.38,13.02,20.05.49,1.31,1.7,2.1,3.49,1.73,4.63-.98,7.5-6.19,5.55-10.57-3.07-6.87-1.9-13.48,2.16-19.26ZM68.45,205.26c-2.26-4.38-3.91-7.67-5.67-10.91-.67-1.25-1.31-2.88-2.42-3.46-4.34-2.28-5.08-6.6-7.02-11.2-2.5-2.79-8.97-12.64-8.97-12.64-.22-3.21-.45-6.43-.68-9.65l1.56-6.33c.51-2.35.98-6.25-.44-10.59-.29-.89-3.34-11.56-8.48-10.05-4.65,1.36-7.33-.48-9.9-4.03-2.16-2.97-5.58-4.95-6.74-8.78-.38-1.24-1.71-1.83-3.08-1.62-3.09.48-6.17,1.03-9.66,1.62,1.25,3.45-.04,6.55.21,9.72.91,11.15,2.4,22.09,5.98,32.87,4.27,12.89,9.63,24.59,21.42,32.4,10.06,6.67,21.17,10.12,33.89,12.65Z"/>
      <path class="cls-1" d="M62.78,194.35c1.76,3.24,3.41,6.53,5.67,10.91-12.72-2.53-23.83-5.98-33.89-12.65-11.79-7.81-17.15-19.51-21.42-32.4-3.58-10.78-5.07-21.72-5.98-32.87-.25-3.17,1.04-6.27-.21-9.72,3.49-.59,6.57-1.14,9.66-1.62,1.37-.21,2.7.38,3.08,1.62,1.16,3.83,4.58,5.81,6.74,8.78,2.57,3.55,5.25,5.39,9.9,4.03,5.14-1.51,8.19,9.16,8.48,10.05,1.42,4.34.95,8.24.44,10.59l-1.56,6.33c.23,3.22.46,6.44.68,9.65,0,0,6.47,9.85,8.97,12.64,1.94,4.6,2.68,8.92,7.02,11.2,1.11.58,1.75,2.21,2.42,3.46Z"/>
    </g>
  </g>
</svg>